<svg xmlns="http://www.w3.org/2000/svg" width="512" height="512" viewBox="0 0 512 512" style="overflow: visible;" data-bbox="85.41777277992094 237.63777452785234 216.04678826411964 36.801646216144945"><rect data-uid="o_f5lgi90m6_298" data-fl-background="" x="0" y="0" width="512" height="512" fill="#ffffff"></rect><defs transform="matrix(0.8125, 0, 0, 0.8125, 48, 48)" data-uid="o_f5lgi90m6_5"><linearGradient x1="99.73%" y1="44.74%" x2="0.27%" y2="55.26%" id="g_-855413642_9" gradientUnits="userSpaceOnUse" data-uid="o_f5lgi90m6_233"><stop offset="0%" stop-color="rgb(0, 242, 254)" stop-opacity="1.00" data-uid="o_f5lgi90m6_234"></stop><stop offset="0%" stop-color="rgb(3, 254, 248)" stop-opacity="1.00" data-uid="o_f5lgi90m6_235"></stop><stop offset="100%" stop-color="rgb(51, 156, 248)" stop-opacity="1.00" data-uid="o_f5lgi90m6_236"></stop></linearGradient><linearGradient x1="11.71%" y1="82.12%" x2="88.29%" y2="17.88%" id="g_-825918479_12" gradientUnits="userSpaceOnUse" data-uid="o_f5lgi90m6_284"><stop offset="0%" stop-color="rgb(0, 242, 254)" stop-opacity="1.00" data-uid="o_f5lgi90m6_285"></stop><stop offset="0%" stop-color="rgb(3, 254, 248)" stop-opacity="1.00" data-uid="o_f5lgi90m6_286"></stop><stop offset="100%" stop-color="rgb(51, 156, 248)" stop-opacity="1.00" data-uid="o_f5lgi90m6_287"></stop></linearGradient><linearGradient x1="88.14%" y1="17.9%" x2="11.86%" y2="82.1%" id="g_-824816089_13" gradientUnits="objectBoundingBox" data-uid="o_f5lgi90m6_292"><stop offset="0%" stop-color="rgb(0, 242, 254)" stop-opacity="1.00" data-uid="o_f5lgi90m6_293"></stop><stop offset="0%" stop-color="rgb(3, 254, 248)" stop-opacity="1.00" data-uid="o_f5lgi90m6_294"></stop><stop offset="100%" stop-color="rgb(51, 156, 248)" stop-opacity="1.00" data-uid="o_f5lgi90m6_295"></stop></linearGradient></defs><path text="My Team" fill="url(#g_-824816089_13)" space="preserve" text-anchor="start" offset="0" font-scale="contain" font-size="48" font-family="Arimo" transform="matrix(2.0074651036072018, 0, 0, 2.0074651036072018, 129.24916543516866, 283.93649451013005)" font-style="normal" font-weight="400" letter-spacing="0" data-fl-textpath="" data-uid="o_f5lgi90m6_16" d="M 7.92-22.03L 7.92-22.03L 7.92 0L 3.94 0L 3.94-33.02L 9.82-33.02L 18.61-10.13Q 19.08-8.74  19.51-7.16Q 19.95-5.58  20.09-4.88L 20.09-4.88Q 20.23-5.51  20.55-6.62Q 20.88-7.73  21.21-8.77Q 21.54-9.8  21.68-10.13L 21.68-10.13L 30.3-33.02L 36.05-33.02L 36.05 0L 32.02 0L 32.02-22.03Q 32.02-23.86  32.07-25.62Q 32.13-27.38  32.23-29.06L 32.23-29.06Q 31.64-26.98  31.14-25.32Q 30.63-23.67  30.16-22.5L 30.16-22.5L 21.63 0L 18.49 0L 9.84-22.5L 7.76-29.06Q 7.8-27.3  7.86-25.55Q 7.92-23.79  7.92-22.03ZM 44.464375000000004 9.96L 44.464375000000004 9.96Q 42.774375 9.96  41.554375 9.7L 41.554375 9.7L 41.554375 6.54Q 42.444375 6.68  43.524375 6.68L 43.524375 6.68Q 45.494375 6.68  47.164375 5.21Q 48.844375 3.75  50.154375-0.12L 50.154375-0.12L 40.104375-25.36L 44.604375-25.36L 49.944375-11.34Q 50.534375-9.84  51.194375-7.95Q 51.864375-6.05  52.244375-4.59L 52.244375-4.59Q 52.824375-6.26  53.424375-7.9Q 54.024375-9.54  54.584375-11.18L 54.584375-11.18L 59.434375-25.36L 63.894375-25.36L 54.144375 0Q 53.344375 2.02  52.614375 3.53Q 51.894375 5.04  51.214375000000004 6.02L 51.214375000000004 6.02Q 49.854375 8.02  48.194375 8.99Q 46.544375 9.96  44.464375000000004 9.96ZM 104.673125-29.37L 93.333125-29.37L 93.333125 0L 88.873125 0L 88.873125-29.37L 77.533125-29.37L 77.533125-33.02L 104.673125-33.02L 104.673125-29.37ZM 125.013125-11.79L 106.923125-11.79Q 106.923125-7.43  108.723125-5.06Q 110.533125-2.7  114.003125-2.7L 114.003125-2.7Q 116.74312499999999-2.7  118.393125-3.8Q 120.043125-4.9  120.633125-6.59L 120.633125-6.59L 124.333125-5.53Q 122.063125 0.47  114.003125 0.47L 114.003125 0.47Q 108.373125 0.47  105.433125-2.88Q 102.493125-6.23  102.493125-12.84L 102.493125-12.84Q 102.493125-19.13  105.433125-22.48Q 108.373125-25.83  113.833125-25.83L 113.833125-25.83Q 119.433125-25.83  122.223125-22.45Q 125.013125-19.08  125.013125-12.35L 125.013125-12.35L 125.013125-11.79ZM 106.973125-15.02L 120.653125-15.02Q 120.303125-19.03  118.613125-20.87Q 116.933125-22.71  113.763125-22.71L 113.763125-22.71Q 110.693125-22.71  108.903125-20.66Q 107.113125-18.61  106.973125-15.02L 106.973125-15.02ZM 136.8484375 0.47L 136.8484375 0.47Q 133.0284375 0.47  131.1084375-1.55Q 129.1884375-3.56  129.1884375-7.08L 129.1884375-7.08Q 129.1884375-11.02  131.7784375-13.13Q 134.3684375-15.23  140.1284375-15.38L 140.1284375-15.38L 145.8284375-15.47L 145.8284375-16.85Q 145.8284375-19.95  144.5184375-21.28Q 143.1984375-22.62  140.3884375-22.62L 140.3884375-22.62Q 137.5584375-22.62  136.2684375-21.66Q 134.9784375-20.7  134.7184375-18.59L 134.7184375-18.59L 130.3084375-18.98Q 131.3884375-25.83  140.4884375-25.83L 140.4884375-25.83Q 145.2684375-25.83  147.6784375-23.64Q 150.0984375-21.45  150.0984375-17.3L 150.0984375-17.3L 150.0984375-6.38Q 150.0984375-4.5  150.5884375-3.55Q 151.0784375-2.6  152.4584375-2.6L 152.4584375-2.6Q 153.1184375-2.6  153.8484375-2.77L 153.8484375-2.77L 153.8484375-0.14Q 153.0484375 0.05  152.22843749999998 0.14Q 151.4084375 0.23  150.5884375 0.23L 150.5884375 0.23Q 148.2384375 0.23  147.1784375-1Q 146.1084375-2.23  145.9684375-4.85L 145.9684375-4.85L 145.8284375-4.85Q 144.2084375-1.95  142.0684375-0.74Q 139.9184375 0.47  136.8484375 0.47ZM 145.8284375-10.43L 145.8284375-12.52L 141.2084375-12.42Q 138.2584375-12.4  136.7084375-11.81L 136.7084375-11.81Q 135.1684375-11.25  134.3484375-10.08Q 133.5284375-8.91  133.5284375-7.01L 133.5284375-7.01Q 133.5284375-4.95  134.6384375-3.82Q 135.7484375-2.7  137.8084375-2.7L 137.8084375-2.7Q 140.1584375-2.7  141.9384375-3.75L 141.9384375-3.75Q 143.7384375-4.8  144.7884375-6.64Q 145.8284375-8.48  145.8284375-10.43L 145.8284375-10.43ZM 161.36375-14.7L 161.36375-14.7L 161.36375 0L 157.17375 0L 157.17375-19.95Q 157.17375-22.17  157.13375-23.52Q 157.10375-24.87  157.03375-25.36L 157.03375-25.36L 161.01375-25.36Q 161.06375-24.84  161.11375-24.09Q 161.15375-23.34  161.18375-22.54Q 161.20375-21.73  161.20375-21.02L 161.20375-21.02L 161.27375-21.02Q 162.63375-23.72  164.39375-24.77Q 166.14375-25.83  168.68375-25.83L 168.68375-25.83Q 171.56375-25.83  173.23375-24.68Q 174.91375-23.53  175.57375-21.02L 175.57375-21.02L 175.64375-21.02Q 176.95375-23.58  178.81375-24.7Q 180.68375-25.83  183.32375-25.83L 183.32375-25.83Q 187.17374999999998-25.83  188.91375-23.74Q 190.66375-21.66  190.66375-16.9L 190.66375-16.9L 190.66375 0L 186.49375 0L 186.49375-16.08Q 186.49375-19.76  185.48375-21.16Q 184.47375-22.57  181.85375-22.57L 181.85375-22.57Q 179.08375-22.57  177.55375-20.52Q 176.01375000000002-18.47  176.01375000000002-14.7L 176.01375000000002-14.7L 176.01375000000002 0L 171.84375 0L 171.84375-16.08Q 171.84375-19.76  170.83375-21.16Q 169.82375-22.57  167.20375-22.57L 167.20375-22.57Q 164.50375-22.57  162.93375-20.51Q 161.36375-18.45  161.36375-14.7Z"></path><g transform="matrix(0.2177369059737178, 0, 0, 0.2177369059737178, -0.19465493671799725, 190.18133348711447)" fill="url(#g_-825918479_12)" stroke="url(#g_-855413642_9)" stroke-width="0" data-uid="o_f5lgi90m6_75"><path d="m501.28 345.985-17.791-17.741c-6.329-6.321-14.764-9.803-23.752-9.803-5.747 0-11.264 1.43-16.153 4.109l-33.526-33.486 1.633-1.631c13.601-13.628 13.596-35.773-.001-49.355-4.859-4.868-10.922-8.114-17.531-9.48.91-3.141 1.389-6.431 1.389-9.798 0-9.355-3.634-18.127-10.212-24.678-4.86-4.868-10.922-8.114-17.531-9.48.91-3.141 1.389-6.43 1.389-9.798 0-9.356-3.634-18.127-10.223-24.688-4.976-4.97-11.093-8.116-17.516-9.455 3.436-11.847.5-25.176-8.82-34.512-7.758-7.725-18.285-11.045-28.43-9.969l-66.435-12.575c-10.132-1.922-22.785-3.193-30.772 4.092-.504.46-1.018.989-1.524 1.578-12.384-4.514-26.828-1.826-36.745 8.08-6.579 6.571-10.203 15.339-10.203 24.689 0 3.368.477 6.657 1.386 9.799-6.602 1.365-12.657 4.607-17.5 9.459-6.592 6.565-10.227 15.323-10.234 24.662-.003 3.376.476 6.676 1.39 9.826-6.605 1.362-12.664 4.598-17.522 9.45-6.592 6.585-10.222 15.358-10.222 24.703 0 7.158 2.137 13.977 6.097 19.737-5 1.695-9.58 4.516-13.415 8.347-13.61 13.593-13.615 35.739.009 49.387l1.627 1.62-33.53 33.469c-12.461-5.867-27.814-3.669-38.097 6.601l-17.802 17.752c-6.332 6.324-9.818 14.76-9.819 23.753 0 8.994 3.487 17.431 9.819 23.756l22.217 22.19c3.935 3.931 10.312 3.927 14.242-.008 3.931-3.935 3.927-10.312-.008-14.242l-22.217-22.19c-2.522-2.519-3.911-5.895-3.911-9.505 0-3.609 1.389-6.984 3.905-9.497l17.803-17.753c4.448-4.443 11.256-5.105 16.426-2.014.364.547.785 1.067 1.267 1.55.863.865 1.848 1.528 2.894 2.013l102.093 101.943c.485 1.057 1.151 2.052 2.02 2.922.846.847 1.811 1.502 2.835 1.984 2.159 2.441 3.352 5.559 3.352 8.885 0 3.61-1.389 6.985-3.911 9.504l-17.785 17.764c-5.255 5.232-13.803 5.231-19.042.016l-22.217-22.219c-3.933-3.933-10.309-3.933-14.242 0s-3.933 10.309 0 14.242l22.233 22.235c6.544 6.517 15.138 9.774 23.736 9.774 8.6 0 17.204-3.262 23.756-9.785l17.796-17.775c6.332-6.325 9.819-14.761 9.819-23.756 0-6.419-1.785-12.549-5.104-17.835l37.736-37.69c.04-.041.08-.082.121-.123 4.321-4.467 16.354-3.631 27.991-2.823 8.268.575 17.486 1.214 26.492.176l41.324 41.275c-2.677 4.881-4.106 10.391-4.106 16.129 0 8.985 3.487 17.416 9.819 23.741l17.797 17.775c6.328 6.321 14.763 9.803 23.751 9.803 8.987 0 17.422-3.481 23.751-9.803l107.941-107.81c6.332-6.324 9.819-14.76 9.819-23.754-.001-8.993-3.488-17.429-9.826-23.759zm-267.26-242.55 43.687 8.269-26.149 26.139c-4.045-1.944-9.589-5.57-15.671-11.388-8.325-7.964-14.28-17.159-14.822-22.894-.001-.003-.001-.006-.001-.009 0-.001-.001-.002-.001-.003-.039-.412-.049-.741-.044-.992 1.317-.32 4.815-.675 13.001.878zm-51.058 8.211c5.102-5.097 13.028-5.685 18.793-1.781 3.267 13.698 14.952 26.113 20.209 31.143 3.896 3.728 16.397 14.905 29.015 17.977 1.707 2.447 2.636 5.364 2.636 8.442 0 3.965-1.525 7.672-4.304 10.448-2.771 2.776-6.484 4.304-10.456 4.304-3.973 0-7.686-1.528-10.47-4.317l-.001-.001-.005-.005-45.418-45.336c-2.769-2.765-4.294-6.472-4.294-10.436.001-3.965 1.526-7.672 4.295-10.438zm-26.316 43.947c2.771-2.775 6.48-4.304 10.446-4.304 3.971 0 7.692 1.532 10.481 4.318l36.572 36.499c5.759 5.768 5.759 15.154.02 20.902-2.786 2.775-6.512 4.303-10.491 4.303s-7.705-1.528-10.479-4.291l-.001-.001-27.745-27.739c-.043-.043-.09-.083-.134-.127l-8.68-8.676c-2.785-2.782-4.318-6.496-4.315-10.458.004-3.949 1.532-7.644 4.326-10.426zm-26.366 43.938c2.773-2.769 6.49-4.294 10.468-4.294 3.945 0 7.63 1.503 10.391 4.224l27.83 27.817c2.775 2.764 4.304 6.467 4.304 10.427 0 3.959-1.529 7.662-4.315 10.437-2.772 2.768-6.485 4.293-10.456 4.293-3.977 0-7.702-1.529-10.478-4.293l-10.089-10.077c-.002-.003-.005-.005-.007-.007l-17.647-17.626c-2.782-2.779-4.314-6.491-4.314-10.451 0-3.959 1.532-7.672 4.313-10.45zm-17.54 52.786c2.785-2.782 6.507-4.314 10.48-4.314 3.972 0 7.693 1.531 10.477 4.311l10.103 10.091c2.776 2.764 4.304 6.467 4.304 10.427s-1.529 7.662-4.325 10.448c-2.771 2.775-6.484 4.304-10.456 4.304-3.973 0-7.686-1.528-10.477-4.324l-1.265-1.26c-.017-.017-.03-.035-.046-.051-.019-.018-.039-.034-.058-.052l-8.727-8.693c-5.759-5.771-5.764-15.14-.01-20.887zm205.234 114.458c-3.931-3.936-10.308-3.939-14.242-.009l-8.96 8.949c-8.514 8.514-23.941 7.442-38.86 6.407-16.201-1.126-32.954-2.288-43.795 8.842l-37.095 37.05-92.763-92.627 32.828-32.769c5.426 3.326 11.687 5.109 18.238 5.109 9.359 0 18.135-3.628 24.69-10.195 6.599-6.572 10.234-15.343 10.234-24.699 0-.087-.006-.173-.006-.26.087.001.174.006.261.006 9.346 0 18.115-3.617 24.679-10.173 6.599-6.572 10.234-15.344 10.234-24.699 0-.087-.006-.173-.006-.26.088 0 .176.006.265.006 9.343 0 18.117-3.613 24.725-10.194 6.86-6.871 10.253-15.917 10.188-24.944.09.001.18.006.27.006 9.359-.001 18.134-3.628 24.699-10.205 6.579-6.571 10.203-15.339 10.203-24.689 0-6.539-1.778-12.79-5.093-18.205l28.773-28.761c2.144-2.135 4.788-3.475 7.559-4.028.3-.032.596-.08.889-.138 4.446-.613 9.115.759 12.515 4.145 5.759 5.769 5.759 15.155.021 20.903l-8.763 8.727c-.029.029-.06.055-.089.084l-10.093 10.076c-3.936 3.93-3.94 10.307-.009 14.242 3.932 3.936 10.308 3.939 14.242.009l8.798-8.786c.002-.002.004-.004.006-.006l1.33-1.325c5.775-5.722 15.131-5.71 20.9.051 2.776 2.764 4.305 6.467 4.305 10.427 0 3.959-1.529 7.662-4.327 10.448l-8.813 8.831c-.001.001-.002.002-.003.004l-10.092 10.051c-3.941 3.925-3.954 10.302-.029 14.242 3.925 3.941 10.301 3.953 14.242.029l10.138-10.097c2.771-2.776 6.484-4.304 10.456-4.304 3.973 0 7.687 1.528 10.478 4.324 2.776 2.765 4.304 6.468 4.304 10.428 0 3.959-1.528 7.662-4.32 10.442l-17.57 17.577c-3.932 3.934-3.931 10.31.002 14.242 1.967 1.966 4.543 2.948 7.12 2.948 2.578 0 5.156-.984 7.122-2.951l8.611-8.614c.049-.047.102-.088.151-.137 2.771-2.776 6.484-4.304 10.456-4.304 3.973 0 7.686 1.528 10.467 4.314 5.753 5.747 5.748 15.117 0 20.875l-8.755 8.745c-.003.003-.007.006-.01.009s-.006.007-.009.01l-13.896 13.879c-3.935 3.931-3.939 10.308-.009 14.243 1.967 1.969 4.547 2.954 7.126 2.954 2.575 0 5.151-.982 7.117-2.945l6.797-6.789 32.577 32.539-92.755 92.642-33.234-33.194c2.317-1.49 4.534-3.242 6.615-5.323l8.955-8.944c3.937-3.929 3.941-10.306.01-14.241zm169.078 12.472-107.941 107.81c-2.525 2.522-5.905 3.911-9.517 3.911s-6.992-1.389-9.518-3.912l-17.797-17.775c-2.522-2.518-3.911-5.888-3.911-9.489 0-3.6 1.389-6.97 3.911-9.489l107.941-107.81c2.526-2.523 5.905-3.912 9.518-3.912 3.612 0 6.992 1.389 9.524 3.918l17.791 17.741c2.522 2.519 3.911 5.893 3.911 9.503-.001 3.611-1.39 6.986-3.912 9.504z" transform="matrix(1, 0, 0, 1, 0, 0)" fill="url(#g_-825918479_12)" stroke="url(#g_-855413642_9)" stroke-width="0" data-uid="o_f5lgi90m6_69"></path></g></svg>